<svg id="shopping-cart" xmlns="http://www.w3.org/2000/svg" viewBox="0 0 100 100">
  <defs>
    <style>
      .cls-1 {
        fill: #fff;
      }
    </style>
  </defs>
  <g id="shopping-cart-2" data-name="shopping-cart">
    <path id="Path_1" data-name="Path 1" class="cls-1" d="M30,80A10,10,0,1,0,40,90,10.029,10.029,0,0,0,30,80ZM0,0V10H10L28,48,21,60a17.765,17.765,0,0,0-1,5A10.029,10.029,0,0,0,30,75H90V65H32a1.075,1.075,0,0,1-1-1v-.5L35.5,55h37A9.119,9.119,0,0,0,81,50L99,17.5a2.753,2.753,0,0,0,1-2.5,4.724,4.724,0,0,0-5-5H21L16.5,0ZM80,80A10,10,0,1,0,90,90,10.029,10.029,0,0,0,80,80Z"/>
  </g>
</svg>
